<svg height="64" width="64" xmlns="http://www.w3.org/2000/svg"><path d="m37.443-3.5c8.951 0 16.531 3.105 22.742 9.315 6.208 6.172 9.315 13.733 9.315 22.685 0 8.954-3.049 16.457-9.145 22.514-6.437 6.324-14.076 9.486-22.912 9.486-8.649 0-16.153-3.143-22.514-9.429-6.285-6.285-9.429-13.807-9.429-22.57 0-8.723 3.144-16.285 9.429-22.685 6.209-6.211 13.714-9.316 22.514-9.316zm.114 5.772c-7.276 0-13.428 2.572-18.457 7.715-5.22 5.296-7.829 11.467-7.829 18.513 0 7.125 2.59 13.257 7.77 18.4 5.181 5.182 11.352 7.771 18.514 7.771 7.123 0 13.334-2.609 18.629-7.828 5.029-4.876 7.543-10.99 7.543-18.343 0-7.313-2.553-13.485-7.656-18.513-5.067-5.145-11.239-7.715-18.514-7.715zm-14.286 21.713c.609-3.924 2.189-6.962 4.742-9.114 2.552-2.152 5.656-3.228 9.314-3.228 5.027 0 9.029 1.62 12 4.856 2.971 3.238 4.457 7.391 4.457 12.457 0 4.915-1.543 9-4.627 12.256-3.088 3.256-7.086 4.886-12.002 4.886-3.619 0-6.743-1.085-9.371-3.257-2.629-2.172-4.209-5.257-4.743-9.257h8.059c.19 3.886 2.533 5.829 7.029 5.829 2.246 0 4.057-.972 5.428-2.914 1.373-1.942 2.059-4.534 2.059-7.771 0-3.391-.629-5.971-1.885-7.743-1.258-1.771-3.066-2.657-5.43-2.657-4.268 0-6.667 1.885-7.2 5.656h2.343l-6.342 6.343-6.343-6.343zm-266.09726-34.027672h318.773764c1.874836 0 3.398841 1.5251524 3.398841 3.3998157v75.1237643h-227.840525c-8.35113 15.098939-24.44278 25.350571-42.90742 25.350571-18.47002 0-34.55627-10.242256-42.90205-25.350571h-11.92409c0-31.528872 0-75.1237643 0-75.1237643-.00003-1.8746633 1.52662-3.3998157 3.40148-3.3998157zm318.773733-2.801274h-318.773733c-3.42026 0-6.20309 2.782517-6.20309 6.2010614v108.3116946c0 .77263.62677 1.39928 1.40078 1.39928h328.375655c.774065 0 1.400802-.62668 1.400802-1.39928v-108.3116946c0-3.4185444-2.782825-6.2010614-6.200414-6.2010614zm-248.713133 49.758566c-1.07929-2.350017-2.6624-3.525753-4.74614-3.525753-3.88081 0-5.82279 2.561582-5.82279 7.682115 0 5.121703 1.94198 7.680653 5.82279 7.680653 2.51773 0 4.28-1.246593 5.28446-3.745361l5.39144 2.808051c-2.50957 4.465672-6.27519 6.700399-11.29459 6.700399-3.87291 0-6.97165-1.189025-9.30467-3.565775-2.32747-2.37807-3.4953-5.657475-3.4953-9.835167 0-4.105517 1.18393-7.364762 3.55173-9.778909 2.36488-2.414287 5.37533-3.620857 9.03404-3.620857 5.30579 0 9.10651 2.094328 11.3992 6.27872zm-24.81233 0c-1.07667-2.350017-2.689-3.525753-4.84261-3.525753-3.80333 0-5.70499 2.561582-5.70499 7.682115 0 5.121703 1.90166 7.680653 5.70499 7.680653 2.51249 0 4.3069-1.246593 5.38354-3.745361l5.27368 2.808051c-2.51485 4.465672-6.28603 6.700399-11.3133 6.700399-3.87847 0-6.98536-1.189025-9.3181-3.565775-2.33537-2.37807-3.50323-5.657475-3.50323-9.835167 0-4.105517 1.20526-7.364762 3.61049-9.778909 2.40492-2.414287 5.40487-3.620857 8.99661-3.620857 5.31633 0 9.11966 2.094328 11.42317 6.27872zm-18.56375-20.834097c-7.05494 7.124995-10.58239 15.471162-10.58239 25.043914 0 9.57275 3.49266 17.848062 10.47249 24.827099 6.98508 6.981656 15.29611 10.472502 24.94094 10.472502s18.02801-3.525676 25.15513-10.578282c6.7656-6.550644 10.1484-14.788393 10.1484-24.721319 0-9.856636-3.43891-18.224158-10.31441-25.097537-6.87257-6.8717962-15.20225-10.3091442-24.98912-10.3091442-9.78688 0-18.06837 3.4547492-24.83104 10.3627672zm55.34839-5.61321c8.34313 8.343536 12.51588 18.56035 12.51588 30.646469 0 12.087441-4.10056 22.195814-12.30169 30.325097-8.70466 8.56044-18.98953 12.839969-30.86016 12.839969-11.72593 0-21.83398-4.243431-30.31891-12.734184-8.49043-8.486804-12.73303-18.629961-12.73303-30.430882 0-11.798284 4.2426-22.013759 12.73303-30.646469 8.27071-8.3461668 18.37878-12.5185932 30.31891-12.5185932 12.0875 0 22.30019 4.1724264 30.64597 12.5185932zm63.198819 10.128423c0-1.142187-.926737-2.067479-2.067704-2.067479h-13.089185c-1.141 0-2.0677.925264-2.0677 2.067479v13.089047h3.65059v15.499323h9.92067v-15.499323h3.653298v-13.089047zm-4.135409-8.267191c0 2.472233-2.00436 4.476376-4.4769 4.476376-2.47248 0-4.47687-2.004143-4.47687-4.476376 0-2.472234 2.00439-4.4763758 4.47687-4.4763758 2.47254 0 4.4769 2.0041418 4.4769 4.4763758zm-4.43529-10.0521347c7.263724 0 13.429323 2.5615669 18.502135 7.6820337 5.129086 5.065568 7.692274 11.253248 7.692274 18.559003 0 7.359315-2.509625 13.466644-7.531544 18.32064-5.287079 5.226241-11.508947 7.838702-18.662865 7.838702-7.15927 0-13.32757-2.585667-18.50751-7.759695-5.17995-5.172682-7.76994-11.305459-7.76994-18.399647 0-7.094184 2.61676-13.279203 7.85027-18.559003 5.02198-5.1204414 11.16345-7.6820337 18.42718-7.6820337zm-.0831-5.7578146c-8.86272 0-16.3675 3.09316523-22.50897 9.2795016-6.3022 6.3992487-9.45196 13.9741387-9.45196 22.7193787 0 8.745239 3.14976 16.266571 9.45196 22.561367 6.30217 6.290789 13.80695 9.43883 22.50897 9.43883 8.811819 0 16.45053-3.17217 22.913423-9.520527 6.087906-6.025659 9.13054-13.518884 9.13054-22.479699 0-8.960812-3.096196-16.533044-9.291265-22.7193777-6.195068-6.18633372-13.77751-9.2794736-22.752698-9.2794736zm-9.48149 96.1612923c.39369 0 .76869-.03778 1.1276-.115187.35886-.07762.67493-.20621.9508-.382976.27333-.179353.49014-.42313.65354-.73111.16072-.305304.24378-.698965.24378-1.175663 0-.937335-.26515-1.606852-.79549-2.008549-.53033-.399017-1.23205-.599886-2.10252-.599886h-4.38717v5.013325h4.30951zm-.2356-7.755669c.71779 0 1.30704-.171384 1.7677-.511513.46339-.34013.6937-.891809.6937-1.657718 0-.425822-.0777-.776631-.23022-1.047136-.15539-.273169-.35891-.484709-.61604-.640057-.25697-.152755-.55173-.259715-.88387-.318706-.3348-.05899-.68031-.08833-1.03922-.08833h-3.7658v4.263482h4.07383zm.5142-7.391451c.87048 0 1.66596.07762 2.38376.230375.71782.152756 1.33383.404399 1.84809.755214.51157.34815.90794.814147 1.19186 1.392584.28119.581134.42319 1.296197.42319 2.150494 0 .921258-.20885 1.687167-.62942 2.300461-.4178.615959-1.03921 1.116766-1.85879 1.510427 1.13028.324036 1.97398.891814 2.53105 1.703239.55709.811431.83568 1.788937.83568 2.932497 0 .921257-.17931 1.719312-.53836 2.394199-.35891.672202-.8437 1.223876-1.45169 1.649682-.60529.428512-1.29899.744492-2.07576.948026-.77938.206209-1.57757.307943-2.39979.307943h-8.87611v-18.275115h8.61627v.000026zm7.43518 0h4.50499l4.280035 7.217397 4.255943-7.217397h4.4809l-6.78696 11.261278v7.013863h-4.028288v-7.115627zm130.664096 13.757221c.222354.425822.514256.771281.881164 1.036409.366934.2652.795488.460647 1.29097.589164.492833.128642 1.001692.192807 1.532026.192807.356222 0 .739213-.02949 1.149019-.09107.407141-.05899.790137-.174127 1.149051-.34546.356222-.168693.653505-.404398.894561-.704341.235602-.297283.356223-.677552.356223-1.138179 0-.49542-.157879-.894468-.47405-1.202463-.313272-.307943-.728522-.562396-1.237402-.768595-.511565-.203467-1.092781-.382975-1.738266-.538292-.648161-.152756-1.304368-.324036-1.9686-.511514-.682976-.171384-1.347203-.380284-1.995364-.62668-.645485-.246262-1.226706-.567747-1.738266-.961434-.508926-.390996-.924031-.881086-1.237402-1.470251-.316016-.589164-.47405-1.301542-.47405-2.137107 0-.93999.200673-1.754137.599943-2.445071.40176-.690929.926707-1.266712 1.572192-1.730034.648186-.460647 1.382054-.800735 2.201604-1.023027.816905-.222406 1.636481-.332057 2.453387-.332057.956175 0 1.872191.107219 2.75068.321397.87585.211695 1.657904.559711 2.338204 1.036414.682981.479379 1.224036 1.089972 1.625791 1.831804.399068.744486.599937 1.644331.599937 2.702163h-3.899699c-.03467-.546334-.147219-.998929-.34282-1.355105-.195654-.358862-.455369-.640062-.779416-.846256-.321397-.203467-.690996-.350841-1.106147-.433842-.415162-.08554-.870468-.12859-1.363312-.12859-.321397 0-.64548.03467-.966872.101733-.324036.06965-.616041.187581-.878489.358862-.265148.171384-.47943.382975-.65083.640062-.16859.256921-.254437.581133-.254437.972134 0 .358862.06701.650758.203518.870365.136507.222406.404451.428513.806179.615954.401759.18758.953506.374954 1.660605.562401.707069.187581 1.63378.428512 2.774779.717723.340181.06691.814261.192807 1.416874.372264.605289.179353 1.207933.463337 1.802525.856978.597268.393687 1.111524.918577 1.548099 1.574711.433894.65613.65083 1.49704.65083 2.522732 0 .835561-.16357 1.612192-.487451 2.32992-.324088.717723-.806179 1.336342-1.446287 1.855902-.640135.522225-1.432947.926613-2.381077 1.215845-.945454.291901-2.040905.436533-3.289034.436533-1.007069 0-1.981998-.125848-2.930127-.372264-.948124-.249007-1.783777-.637374-2.506949-1.167636-.725848-.530256-1.301692-1.207808-1.730215-2.027301-.425822-.819493-.632114-1.791628-.613335-2.919084h3.8997c-.000063.613299.109754 1.135518.332056 1.561324zm22.875936-2.552217-2.303384-6.700523h-.05345l-2.378401 6.700523h4.735353zm-.23053-11.205004 6.835203 18.275115h-4.172874l-1.382055-4.070675h-6.835208l-1.435591 4.070675h-4.04432l6.912858-18.275115zm-94.187364 0 7.636005 12.260176h.04295v-12.260176h3.771151v18.275115h-4.020228l-7.606566-12.236072h-.05071v12.236072h-3.771121v-18.275115h3.998779zm26.708641 4.868719c-.238396-.385614-.53835-.723074-.897263-1.012305-.358862-.289263-.763312-.516895-1.215953-.677553-.452678-.163415-.926743-.243777-1.41955-.243777-.905289 0-1.673977.174127-2.306091.524911-.632088.34815-1.143642.816807-1.534701 1.405997-.393687.589164-.6803 1.258681-.859741 2.008543-.179301.749869-.267995 1.5265-.267995 2.327235 0 .768595.08838 1.515772.267995 2.238872.179302.725759.466029 1.379203.859741 1.957676.391048.581128.902613 1.044445 1.534701 1.395276.632114.350841 1.400802.52491 2.306091.52491 1.226706 0 2.188202-.374954 2.879234-1.127456.690996-.749868 1.114199-1.740761 1.266841-2.969987h3.891684c-.101578 1.143529-.366934 2.177283-.792781 3.098515-.425874.923922-.990997 1.708615-1.69005 2.359373-.699047.650759-1.518623 1.146215-2.458732 1.48901-.937433.342768-1.97127.514204-3.096196.514204-1.400771 0-2.659627-.243778-3.779172-.731105-1.116905-.484761-2.062328-1.156942-2.831048-2.008548-.768688-.854293-1.360605-1.858567-1.770411-3.010158-.40978-1.154246-.61601-2.394199-.61601-3.727881 0-1.365822.206313-2.632533.61601-3.802857.40978-1.170318 1.001692-2.190665 1.770411-3.061029.76872-.87036 1.714143-1.553289 2.831048-2.04872 1.119545-.49542 2.378401-.741826 3.779172-.741826 1.007068 0 1.957904.144528 2.852465.436533.897237.289262 1.700771.712377 2.407845 1.269402.70977.554365 1.29364 1.242608 1.754334 2.062101.460647.819493.74994 1.759488.870473 2.817319h-3.891684c-.06981-.460646-.222354-.883746-.460647-1.266716zm-11.975011-80.1410875c-7.263788 0-13.402587 2.5588466-18.424481 7.6806592-1.366111 1.3778443-2.555203 2.8186523-3.564978 4.3224233l12.234789 5.445839c1.106147-3.393082 4.33096-5.452539 8.243999-5.681555v-4.9342783h3.674779v4.9342783c2.531012.123218 5.305821.816875 8.043011 2.935174l-4.205019 4.32107c-1.55348-1.099326-3.511224-1.874625-5.471896-1.874625-1.590903 0-3.835472.487379-3.835472 2.48387 0 .306634.101889.57575.28652.812818l4.092543 1.82242 2.769428 1.23456c1.773087.79008 3.463229 1.539843 5.139751 2.287026l16.3997047 7.300494c.5409986-2.14786.8114928-4.432213.8114928-6.850542 0-7.309804-2.5630635-13.493423-7.6868975-18.5589723-5.07541-5.1218442-11.243772-7.6806592-18.507373-7.6806592zm-24.841831 17.6430605c-.956238 2.699458-1.432916 5.565034-1.432916 8.596571 0 7.094246 2.589956 13.225628 7.769842 18.399645 5.179881 5.172668 11.348243 7.759757 18.504905 7.759757 7.156465 0 13.378395-2.612497 18.665406-7.840078 1.767705-1.709923 3.227482-3.575239 4.371094-5.597175l-12.063368-5.372122c-.816843 4.059912-4.435229 6.799595-8.808993 7.122269v4.934371h-3.674778v-4.934371c-3.588978-.04145-7.060098-1.510406-9.714344-3.832278l4.408522-4.44297c2.123819 1.996525 4.245154 2.893692 7.143224 2.893692 1.880217 0 3.961226-.733849 3.961226-3.181552 0-.865025-.33749-1.468924-.865025-1.921548l-3.050685-1.359133-3.800533-1.69121c-1.880212-.836816-3.471306-1.5439-5.067591-2.256237zm24.761401-23.4036178c8.972548 0 16.555021 3.09449881 22.750058 9.2781811 6.1977439 6.1876447 9.2939093 13.7625377 9.2939093 22.7219757 0 8.959437-3.045309 16.452656-9.1305403 22.481069-6.465536 6.34697-14.101572 9.519089-22.913427 9.519089-8.704755 0-16.209443-3.146706-22.508935-9.440119-6.302168-6.290798-9.454603-13.813485-9.454603-22.560071 0-8.746585 3.152435-16.321479 9.454603-22.7219753 6.141469-6.18365069 13.643518-9.2781495 22.508935-9.2781495z" transform="matrix(.19325001 0 0 .19325 48.124923 23.282093)"/></svg>